<svg width="117" height="109" viewBox="0 0 117 109" fill="none" xmlns="http://www.w3.org/2000/svg">
<g clip-path="url(#clip0_95_1056)">
<path d="M116 58.77V107.27H1V58.77H18.93C23.15 58.77 26.81 61.69 27.75 65.82L30.04 75.92C30.98 80.07 34.67 83.02 38.93 83.02H47.65C50.5 83.02 53.1 77.7 54.79 75.57C55.19 75.06 55.81 74.77 56.46 74.77C57.11 74.77 57.73 75.06 58.13 75.57C59.82 77.7 62.43 83.02 65.27 83.02H73.01C77.21 83.02 80.86 80.16 81.86 76.09L84.45 65.64C85.45 61.61 89.07 58.77 93.23 58.77H116Z" fill="#F2D1D6" stroke="#333333" stroke-width="2" stroke-miterlimit="10"/>
<path d="M81.8698 15.44C81.9698 13.83 81.7698 12.21 81.2398 10.66C79.5598 5.75002 76.4898 3.18002 73.0698 1.95002C69.8398 0.800016 66.3098 0.840015 63.3298 1.27002C62.2198 1.42002 61.1998 1.63002 60.2898 1.85002C57.7998 2.45002 55.1798 2.45002 52.6898 1.85002C46.7598 0.420016 35.5898 -0.589985 31.7398 10.66C31.2098 12.21 31.0098 13.82 31.1098 15.44C31.2898 18.28 37.7398 41.32 37.8998 44.35C37.9598 45.48 37.9498 46.65 37.8398 47.76C37.5698 50.32 37.6698 52.9 38.0098 55.45C38.9198 62.23 41.1298 72.85 45.9898 72.85C45.9898 72.85 51.0398 75 52.1598 55.15C52.1598 55.15 53.5598 41.62 56.5098 41.62C59.4598 41.62 60.8598 55.15 60.8598 55.15C61.9798 75 67.0298 72.85 67.0298 72.85C71.8998 72.85 74.0998 62.23 75.0098 55.45C75.3498 52.9 75.4398 50.33 75.1798 47.77C74.6898 43.09 81.6898 18.29 81.8698 15.44Z" fill="white" stroke="#333333" stroke-width="2" stroke-miterlimit="10"/>
<path d="M55.6001 2.27002C55.6001 2.27002 63.4001 3.41002 64.4701 8.20002Z" fill="white"/>
<path d="M55.6001 2.27002C55.6001 2.27002 63.4001 3.41002 64.4701 8.20002" stroke="#333333" stroke-width="2" stroke-miterlimit="10"/>
<path d="M92.33 87.15C92.9154 87.15 93.39 86.6754 93.39 86.09C93.39 85.5046 92.9154 85.03 92.33 85.03C91.7446 85.03 91.27 85.5046 91.27 86.09C91.27 86.6754 91.7446 87.15 92.33 87.15Z" fill="#F2D1D6" stroke="#333333" stroke-width="2" stroke-miterlimit="10"/>
<path d="M104.08 98.33C104.665 98.33 105.14 97.8554 105.14 97.27C105.14 96.6846 104.665 96.21 104.08 96.21C103.495 96.21 103.02 96.6846 103.02 97.27C103.02 97.8554 103.495 98.33 104.08 98.33Z" fill="#F2D1D6" stroke="#333333" stroke-width="2" stroke-miterlimit="10"/>
<path d="M21.33 88.21C21.9154 88.21 22.39 87.7354 22.39 87.15C22.39 86.5645 21.9154 86.09 21.33 86.09C20.7446 86.09 20.27 86.5645 20.27 87.15C20.27 87.7354 20.7446 88.21 21.33 88.21Z" fill="#F2D1D6" stroke="#333333" stroke-width="2" stroke-miterlimit="10"/>
<path d="M16.2602 73.98C16.8456 73.98 17.3202 73.5054 17.3202 72.92C17.3202 72.3346 16.8456 71.86 16.2602 71.86C15.6748 71.86 15.2002 72.3346 15.2002 72.92C15.2002 73.5054 15.6748 73.98 16.2602 73.98Z" fill="#F2D1D6" stroke="#333333" stroke-width="2" stroke-miterlimit="10"/>
<path d="M72.7602 98.33C73.3456 98.33 73.8202 97.8554 73.8202 97.27C73.8202 96.6846 73.3456 96.21 72.7602 96.21C72.1748 96.21 71.7002 96.6846 71.7002 97.27C71.7002 97.8554 72.1748 98.33 72.7602 98.33Z" fill="#F2D1D6" stroke="#333333" stroke-width="2" stroke-miterlimit="10"/>
<path d="M35.9301 95.08C36.5155 95.08 36.9901 94.6054 36.9901 94.02C36.9901 93.4346 36.5155 92.96 35.9301 92.96C35.3447 92.96 34.8701 93.4346 34.8701 94.02C34.8701 94.6054 35.3447 95.08 35.9301 95.08Z" fill="#F2D1D6" stroke="#333333" stroke-width="2" stroke-miterlimit="10"/>
</g>
<defs>
<clipPath id="clip0_95_1056">
<rect width="117" height="108.27" fill="white"/>
</clipPath>
</defs>
</svg>
