<svg width="71" height="117" viewBox="0 0 71 117" fill="none" xmlns="http://www.w3.org/2000/svg">
<g clip-path="url(#clip0_95_1066)">
<path d="M69.2399 30.29L66.3099 45.4C65.3899 50.15 61.2299 53.57 56.3999 53.57H14.5299C9.6999 53.57 5.5399 50.14 4.6199 45.4L1.6899 30.29C0.919904 27.14 0.749904 23.75 1.4099 20.22C3.2999 9.97001 11.9599 2.08002 22.3599 1.11002C27.1099 0.660015 31.5999 1.64002 35.4699 3.65002C39.3399 1.64002 43.8099 0.660015 48.5599 1.11002C58.9499 2.07002 67.6099 9.96001 69.5199 20.22C70.1699 23.75 70.0199 27.15 69.2399 30.3V30.29Z" fill="white" stroke="#333333" stroke-width="2" stroke-miterlimit="10"/>
<path d="M26.7202 11.42C30.9602 5.13 38.1502 1 46.3102 1C59.3602 1 69.9302 11.58 69.9302 24.62" fill="white"/>
<path d="M26.7202 11.42C30.9602 5.13 38.1502 1 46.3102 1C59.3602 1 69.9302 11.58 69.9302 24.62" stroke="#333333" stroke-width="2" stroke-miterlimit="10"/>
<path d="M14.5298 53.58H54.4198V60.12C54.4198 62.87 52.1798 65.11 49.4298 65.11H19.5198C16.7698 65.11 14.5298 62.87 14.5298 60.12V53.58Z" fill="#EAEAEA" stroke="#333333" stroke-width="2" stroke-miterlimit="10"/>
<path d="M30.6602 110.25H38.2802V113.06C38.2802 114.24 37.3202 115.2 36.1402 115.2H32.8002C31.6202 115.2 30.6602 114.24 30.6602 113.06V110.25Z" fill="#EAEAEA" stroke="#333333" stroke-width="2" stroke-miterlimit="10"/>
<path d="M18.1602 65.11H50.8002V71.65C50.8002 74.4 48.5602 76.64 45.8102 76.64H23.1502C20.4002 76.64 18.1602 74.4 18.1602 71.65V65.11Z" fill="#EAEAEA" stroke="#333333" stroke-width="2" stroke-miterlimit="10"/>
<path d="M20.8701 76.65H48.0801V83.19C48.0801 85.94 45.8401 88.18 43.0901 88.18H25.8601C23.1101 88.18 20.8701 85.94 20.8701 83.19V76.65Z" fill="#EAEAEA" stroke="#333333" stroke-width="2" stroke-miterlimit="10"/>
<path d="M23.5903 88.18H45.3703V94.72C45.3703 97.47 43.1303 99.71 40.3803 99.71H28.5803C25.8303 99.71 23.5903 97.47 23.5903 94.72V88.18Z" fill="#EAEAEA" stroke="#333333" stroke-width="2" stroke-miterlimit="10"/>
<path d="M25.5901 99.72H43.3501V106.26C43.3501 109.01 41.1101 111.25 38.3601 111.25H30.5701C27.8201 111.25 25.5801 109.01 25.5801 106.26V99.72H25.5901Z" fill="#EAEAEA" stroke="#333333" stroke-width="2" stroke-miterlimit="10"/>
</g>
<defs>
<clipPath id="clip0_95_1066">
<rect width="70.93" height="116.2" fill="white"/>
</clipPath>
</defs>
</svg>
