<svg width="76" height="107" viewBox="0 0 76 107" fill="none" xmlns="http://www.w3.org/2000/svg">
<g clip-path="url(#clip0_95_982)">
<path d="M74.9301 22.03C75.0801 19.68 74.7801 17.32 74.0101 15.07C71.5701 7.91999 67.0901 4.17999 62.1101 2.38999C57.4101 0.709994 52.2601 0.779994 47.9301 1.39999C46.3201 1.61999 44.8301 1.92999 43.5101 2.24999C39.8801 3.11999 36.0701 3.11999 32.4501 2.24999C23.8201 0.159994 7.55007 -1.30001 1.95007 15.07C1.18007 17.32 0.890067 19.68 1.03007 22.03C1.29007 26.17 10.6801 59.72 10.9101 64.13C11.0001 65.78 10.9901 67.48 10.8201 69.1C10.4301 72.83 10.5701 76.58 11.0701 80.29C12.4001 90.17 15.6101 105.62 22.6901 105.62C22.6901 105.62 30.0401 108.75 31.6701 79.85C31.6701 79.85 33.7101 60.16 38.0001 60.16C42.2901 60.16 44.3301 79.85 44.3301 79.85C45.9601 108.75 53.3101 105.62 53.3101 105.62C60.4001 105.62 63.6101 90.16 64.9301 80.28C65.4301 76.57 65.5601 72.82 65.1701 69.1C64.4601 62.29 74.6501 26.17 74.9101 22.03H74.9301Z" fill="white" stroke="#333333" stroke-width="2" stroke-miterlimit="10"/>
<path d="M11.9302 83.16C15.4102 81.95 18.3702 79.34 20.0102 76.05C22.0102 72.03 22.0002 67.35 22.9202 62.96C24.0902 57.35 26.8602 52.07 30.8202 47.92" stroke="#F2D1D6" stroke-width="2" stroke-miterlimit="10" stroke-linecap="round"/>
<path d="M15.4598 31.28C15.1798 41.06 17.78 50.45 24 58" stroke="#F2D1D6" stroke-width="2" stroke-miterlimit="10" stroke-linecap="round"/>
<path d="M23.6102 79.34C21.8802 85.26 23.9202 92.1 28.6102 96.1" stroke="#F2D1D6" stroke-width="2" stroke-miterlimit="10" stroke-linecap="round"/>
<path d="M23 66C25.74 66.76 27.58 64.3 29.48 62.19C35.75 55.22 40.41 46.71 42.27 37.52" stroke="#F2D1D6" stroke-width="2" stroke-miterlimit="10" stroke-linecap="round"/>
<path d="M16.77 42.25C18.6 40.66 19.31 38.13 19.48 35.71C19.64 33.29 19.34 30.86 19.56 28.45" stroke="#F2D1D6" stroke-width="2" stroke-miterlimit="10" stroke-linecap="round"/>
<path d="M38.7401 47.31C37.4701 45.63 36.3601 43.77 35.8601 41.72C35.2001 39.05 35.6001 36.23 36.3001 33.57C37.0001 30.91 37.9901 28.33 38.5301 25.63" stroke="#F2D1D6" stroke-width="2" stroke-miterlimit="10" stroke-linecap="round"/>
<path d="M36.5801 52.61C37.7501 52.93 39.0001 52.56 40.1201 52.08C44.1401 50.33 47.4001 46.89 48.9301 42.78" stroke="#F2D1D6" stroke-width="2" stroke-miterlimit="10" stroke-linecap="round"/>
<path d="M45.3701 84.51C50.3401 78.7 52.9001 70.89 52.3401 63.26" stroke="#F2D1D6" stroke-width="2" stroke-miterlimit="10" stroke-linecap="round"/>
<path d="M54.9002 76.97C54.5102 82.14 54.2202 87.76 57.1202 92.07C57.6402 92.84 58.2602 93.56 58.6702 94.39C59.2602 95.56 59.4302 96.89 59.8102 98.14" stroke="#F2D1D6" stroke-width="2" stroke-miterlimit="10" stroke-linecap="round"/>
<path d="M55 85C55.74 84.91 55.9098 84.55 56.4298 84.01C57.7898 82.61 59.1198 81.13 59.8698 79.33C60.7998 77.1 60.7398 74.6 60.6598 72.19" stroke="#F2D1D6" stroke-width="2" stroke-miterlimit="10" stroke-linecap="round"/>
<path d="M49.6401 88.95C50.7201 92.31 54.3701 94.63 57.8701 94.18" stroke="#F2D1D6" stroke-width="2" stroke-miterlimit="10" stroke-linecap="round"/>
<path d="M60.9302 32.95C62.1602 35.54 61.0602 38.58 60.1402 41.29C59.2802 43.83 58.5702 46.42 58.0302 49.04C57.3802 52.19 56.9902 55.53 58.0102 58.58C59.0302 61.63 61.8402 64.29 65.0502 64.19" stroke="#F2D1D6" stroke-width="2" stroke-miterlimit="10" stroke-linecap="round"/>
<path d="M58 49.5C60.97 49.95 62.9 47.75 64.54 45.23C66.18 42.71 66.8 39.68 67.38 36.74C67.72 35.01 68.07 33.28 68.41 31.55" stroke="#F2D1D6" stroke-width="2" stroke-miterlimit="10" stroke-linecap="round"/>
<path d="M52.7202 23.87C53.6002 28.17 52.0702 32.86 53.7302 36.92C54.7802 39.48 57.1102 41.49 59.8002 42.14" stroke="#F2D1D6" stroke-width="2" stroke-miterlimit="10" stroke-linecap="round"/>
<path d="M48.7055 8.08131C48.9161 8.59187 49.5007 8.83504 50.0113 8.62445C50.5218 8.41386 50.765 7.82926 50.5544 7.3187L48.7055 8.08131ZM37.98 2.91C37.9177 3.90806 37.9175 3.90805 37.9174 3.90804C37.9174 3.90804 37.9173 3.90804 37.9173 3.90804C37.9174 3.90804 37.9175 3.90805 37.9179 3.90807C37.9185 3.90812 37.9198 3.9082 37.9216 3.90832C37.9253 3.90856 37.9314 3.90896 37.9397 3.90954C37.9563 3.91068 37.9819 3.91251 38.0161 3.91511C38.0846 3.92031 38.187 3.92859 38.3191 3.94065C38.5834 3.96478 38.9657 4.00399 39.4308 4.06385C40.3634 4.1839 41.6175 4.38551 42.9168 4.71124C44.2232 5.03873 45.5343 5.48175 46.6024 6.06873C47.6846 6.66346 48.4003 7.34125 48.7055 8.08131L50.5544 7.3187C49.9997 5.97376 48.8291 5.0103 47.5657 4.31597C46.2881 3.61389 44.7943 3.12003 43.4032 2.77127C42.0049 2.42075 40.6691 2.20674 39.6861 2.08022C39.1934 2.0168 38.7864 1.97499 38.5009 1.94893C38.3582 1.93589 38.2456 1.92678 38.1677 1.92086C38.1287 1.9179 38.0985 1.91574 38.0774 1.91428C38.0668 1.91356 38.0586 1.913 38.0527 1.91262C38.0498 1.91243 38.0474 1.91227 38.0457 1.91216C38.0448 1.91211 38.0441 1.91206 38.0435 1.91203C38.0433 1.91201 38.0429 1.91199 38.0428 1.91198C38.0425 1.91196 38.0423 1.91195 37.98 2.91Z" fill="#333333"/>
<path d="M74.9301 22.03C75.0801 19.68 74.7801 17.32 74.0101 15.07C71.5701 7.91999 67.0901 4.17999 62.1101 2.38999C57.4101 0.709994 52.2601 0.779994 47.9301 1.39999C46.3201 1.61999 44.8301 1.92999 43.5101 2.24999C39.8801 3.11999 36.0701 3.11999 32.4501 2.24999C23.8201 0.159994 7.55007 -1.30001 1.95007 15.07C1.18007 17.32 0.890067 19.68 1.03007 22.03C1.29007 26.17 10.6801 59.72 10.9101 64.13C11.0001 65.78 10.9901 67.48 10.8201 69.1C10.4301 72.83 10.5701 76.58 11.0701 80.29C12.4001 90.17 15.6101 105.62 22.6901 105.62C22.6901 105.62 30.0401 108.75 31.6701 79.85C31.6701 79.85 33.7101 60.16 38.0001 60.16C42.2901 60.16 44.3301 79.85 44.3301 79.85C45.9601 108.75 53.3101 105.62 53.3101 105.62C60.4001 105.62 63.6101 90.16 64.9301 80.28C65.4301 76.57 65.5601 72.82 65.1701 69.1C64.4601 62.29 74.6501 26.17 74.9101 22.03H74.9301Z" stroke="#333333" stroke-width="2" stroke-miterlimit="10"/>
</g>
<defs>
<clipPath id="clip0_95_982">
<rect width="75.97" height="106.72" fill="white"/>
</clipPath>
</defs>
</svg>
