<svg width="68" height="117" viewBox="0 0 68 117" fill="none" xmlns="http://www.w3.org/2000/svg">
<g clip-path="url(#clip0_95_959)">
<path d="M66.1599 41.61C65.9199 45.26 58.8299 69.87 58.8299 69.87C58.8299 69.87 56.9399 77.1 57.5699 83.1C57.9099 86.38 57.7899 89.68 57.3499 92.95C56.1799 101.66 53.3599 115.29 47.1099 115.29C47.1099 115.29 40.6299 118.05 39.1899 92.58C39.1899 92.58 37.3899 75.22 33.6099 75.22C29.8299 75.22 28.0399 92.58 28.0399 92.58C26.5999 118.05 20.1199 115.29 20.1199 115.29C13.8699 115.29 11.0499 101.67 9.87992 92.96C9.43992 89.69 9.31992 86.38 9.65992 83.1C9.80992 81.67 9.81992 80.17 9.73992 78.72C9.53992 74.83 8.68992 70.99 7.30992 67.3C6.05992 63.93 1.25992 45.26 1.02992 41.61C0.899921 39.54 1.15992 37.47 1.83992 35.48C6.76992 21.05 21.1099 22.34 28.7199 24.18C29.6699 24.41 30.6399 24.57 31.6099 24.66C33.8999 24.89 36.2199 24.73 38.4699 24.18C39.6299 23.91 40.9399 23.64 42.3699 23.44C46.1799 22.89 50.7199 22.84 54.8599 24.31C59.2499 25.88 63.1999 29.19 65.3499 35.48C65.4299 35.7 65.4999 35.92 65.5599 36.15C66.0799 37.93 66.2799 39.77 66.1599 41.61Z" fill="white" stroke="#333333" stroke-width="2" stroke-miterlimit="10"/>
<path d="M65.5601 36.15C62.0501 39.54 56.6001 41.71 50.4701 41.71C39.8901 41.71 31.3101 35.21 31.3101 27.21C31.3101 26.34 31.4101 25.48 31.6101 24.66C33.9001 24.89 36.2201 24.73 38.4701 24.18C39.6301 23.91 40.9401 23.64 42.3701 23.44C46.1801 22.89 50.7201 22.84 54.8601 24.31C59.2501 25.88 63.2001 29.19 65.3501 35.48C65.4301 35.7 65.5001 35.92 65.5601 36.15Z" fill="#AAC9FD" stroke="#333333" stroke-width="2" stroke-miterlimit="10"/>
<path d="M58.5401 34.61C56.4701 36.61 53.2501 37.89 49.6401 37.89C43.4001 37.89 38.3301 34.05 38.3301 29.33C38.3301 28.82 38.3901 28.31 38.5101 27.83C39.8601 27.97 41.2301 27.87 42.5601 27.55C43.2401 27.39 44.0201 27.23 44.8601 27.11C47.1101 26.79 49.7901 26.76 52.2301 27.62C54.8201 28.55 57.1501 30.5 58.4201 34.21C58.4701 34.34 58.5101 34.47 58.5401 34.61Z" fill="#EAEAEA" stroke="#333333" stroke-width="2" stroke-miterlimit="10"/>
<path d="M49.8999 4.32L44.8999 16.49H52.3999L45.8899 32.4" stroke="#333333" stroke-width="2" stroke-miterlimit="10"/>
<path d="M63.3298 0.38L60.3198 7.69H64.8298L60.3198 18.71" stroke="#333333" stroke-width="2" stroke-miterlimit="10"/>
</g>
<defs>
<clipPath id="clip0_95_959">
<rect width="67.2" height="116.38" fill="white"/>
</clipPath>
</defs>
</svg>
