<svg width="43" height="57" viewBox="0 0 43 57" fill="none" xmlns="http://www.w3.org/2000/svg">
<path d="M18.49 0.46C18.8 0.44 24.52 0.02 25.39 0H0V20.41C0 9.87 8.15 1.23 18.49 0.46Z" fill="#F99D1C"/>
<path d="M40.6501 18.9C41.1301 18.4 41.8901 17.33 42.1401 16.78C42.3001 16.41 42.4201 15.98 42.5001 15.52C42.8001 13.82 42.5701 12.08 41.9101 10.5C41.9001 10.46 41.8801 10.42 41.8601 10.38C41.7501 10.12 41.6301 9.86 41.5001 9.6C41.4701 9.53 41.4301 9.47 41.4001 9.41C41.3601 9.33 41.3201 9.25 41.2901 9.18C41.3001 9.21 41.3201 9.25 41.3401 9.29C39.2701 5.18 35.8201 1.88 31.5901 0C33.3501 2.61 33.1501 6.16 31.0001 8.6C30.6201 8.98 8.75012 30.88 2.04012 37.59C1.94012 37.69 1.83012 37.8 1.73012 37.92C-0.00988245 39.89 -0.439882 42.72 0.480118 45.18C2.22012 49.8 5.63012 53.62 9.97012 55.89C10.0701 55.94 10.1701 55.99 10.2801 56.04C10.5401 56.16 10.7901 56.29 11.0601 56.4C9.35012 53.8 9.57012 50.28 11.7001 47.88C15.6001 43.97 34.2501 25.3 40.6601 18.89L40.6501 18.9Z" fill="#F99D1C"/>
<path d="M24.14 55.95C23.82 55.97 18.1 56.39 17.24 56.41H42.63V36C42.63 46.54 34.48 55.17 24.14 55.95Z" fill="#F99D1C"/>
</svg>
