<svg width="20" height="19" viewBox="0 0 20 19" fill="none" xmlns="http://www.w3.org/2000/svg">
<g clip-path="url(#clip0_1_18)">
<path d="M7.30859 8.85858H8.46119L7.88489 7.17322L7.30859 8.85858Z" fill="white"/>
<path d="M9.99995 0C4.47715 0 0 3.6341 0 8.117C0 11.0153 1.87169 13.5583 4.68729 14.9943C4.53406 15.5382 3.70299 18.4929 3.66985 18.7251C3.66985 18.7251 3.64995 18.8994 3.7597 18.966C3.86946 19.0325 3.99843 18.9809 3.99843 18.9809C4.31301 18.9356 7.64674 16.5249 8.22381 16.1063C8.8003 16.1903 9.3938 16.234 9.99995 16.234C15.5227 16.234 19.9999 12.6 19.9999 8.117C19.9999 3.634 15.5228 0 9.99995 0ZM5.04804 10.3833C5.04804 10.6961 4.78931 10.9505 4.47116 10.9505C4.15302 10.9505 3.89428 10.6961 3.89428 10.3833V6.85494H2.99414C2.68189 6.85494 2.42799 6.59405 2.42799 6.27339C2.42799 5.95273 2.68208 5.69184 2.99414 5.69184H5.94828C6.26054 5.69184 6.51444 5.95273 6.51444 6.27339C6.51444 6.59405 6.26034 6.85494 5.94828 6.85494H5.04814V10.3833H5.04804ZM9.89667 10.8609C9.78373 10.9144 9.65697 10.9428 9.52993 10.9428C9.28936 10.9428 9.10531 10.8422 9.04986 10.6804L8.76417 9.91057H7.00494L6.71906 10.6808C6.6638 10.8423 6.47985 10.9428 6.23928 10.9428C6.11223 10.9428 5.98528 10.9144 5.87254 10.8608C5.71351 10.7853 5.56057 10.5776 5.73573 10.0175L7.11576 6.27807C7.21295 5.99371 7.5083 5.7007 7.88402 5.69184C8.26082 5.7006 8.55616 5.99361 8.65355 6.27866L10.033 10.0163C10.2085 10.5778 10.0557 10.7856 9.89657 10.8609H9.89667ZM12.8125 10.8639H10.9615C10.6566 10.8639 10.4086 10.6196 10.4086 10.3195V6.28572C10.4086 5.9582 10.6729 5.69184 10.9976 5.69184C11.3223 5.69184 11.5865 5.9582 11.5865 6.28572V9.77501H12.8125C13.1174 9.77501 13.3654 10.0193 13.3654 10.3195C13.3654 10.6196 13.1174 10.8639 12.8125 10.8639ZM17.3287 10.4167C17.3074 10.5739 17.2279 10.7129 17.1049 10.8084C17.0039 10.8869 16.884 10.9283 16.7579 10.9283C16.5751 10.9283 16.4071 10.8423 16.297 10.6922L14.9441 8.84664L14.7439 9.05272V10.3486C14.7438 10.6764 14.4849 10.9428 14.1669 10.9428C13.8488 10.9428 13.59 10.6763 13.59 10.3489V6.28572C13.59 5.9582 13.8488 5.69184 14.1669 5.69184C14.4849 5.69184 14.7438 5.9582 14.7438 6.28572V7.5623L16.3534 5.90529C16.4362 5.82005 16.5499 5.7731 16.6734 5.7731C16.8175 5.7731 16.9621 5.83706 17.0704 5.94855C17.1715 6.05249 17.2317 6.18626 17.24 6.32511C17.2483 6.46515 17.203 6.59356 17.1126 6.68665L15.7979 8.03992L17.2179 9.97672C17.3109 10.1033 17.3501 10.2596 17.3287 10.4167Z" fill="white"/>
</g>
<defs>
<clipPath id="clip0_1_18">
<rect width="20" height="19" fill="white"/>
</clipPath>
</defs>
</svg>
