<svg width="18" height="15" viewBox="0 0 18 15" fill="none" xmlns="http://www.w3.org/2000/svg">
<g clip-path="url(#clip0_1_25)">
<path d="M15.1143 0.358887L15.1475 0.382324C15.1492 0.383236 15.1546 0.385475 15.1641 0.38916C15.1771 0.394197 15.1943 0.39972 15.2158 0.405762C15.2597 0.418056 15.3142 0.430911 15.374 0.443848C15.4858 0.46803 15.6276 0.496593 15.7158 0.532715C16.7782 0.968585 17.4817 1.79096 17.6348 2.8833C17.7163 3.46563 17.6938 3.95986 17.6934 4.52295L17.6924 6.40088L17.6934 8.16064C17.6935 9.01265 17.749 9.96242 17.2471 10.771L17.1387 10.9312C16.6579 11.5799 15.9269 12.0245 15.1035 12.1724H15.1025C14.8337 12.2185 14.4909 12.2079 14.2344 12.2075L13.1777 12.2056H9.22656C8.85138 12.2053 8.47662 12.204 8.10254 12.2065C7.99744 12.2073 7.88681 12.2562 7.76562 12.3364C7.70601 12.3759 7.64751 12.4212 7.58789 12.4673C7.52958 12.5123 7.46868 12.5601 7.41016 12.6011L7.40918 12.6001L5.59375 13.8882C5.44587 13.9924 5.22343 14.1636 5.00586 14.3091C4.78832 14.4545 4.54582 14.595 4.33691 14.6382L4.32422 14.6411H4.26465L4.24512 14.6353C4.14099 14.6009 4.00827 14.544 3.89258 14.4673C3.78143 14.3936 3.6619 14.2855 3.625 14.1411C3.60478 14.0618 3.55863 13.9286 3.58789 13.7915C3.66267 13.4417 3.80956 13.0957 3.91699 12.7778L4.03027 12.4048C4.05089 12.341 4.07531 12.2772 4.10547 12.2075C4.04623 12.2077 3.98542 12.2068 3.92383 12.2075C3.79276 12.209 3.65688 12.2109 3.52148 12.2095C3.25151 12.2065 2.97526 12.1912 2.72754 12.1333C1.95043 11.9516 1.22351 11.4845 0.804688 10.8257V10.8267C0.579533 10.4764 0.433827 10.0857 0.37793 9.6792V9.67822C0.343585 9.41541 0.359837 8.92196 0.360352 8.65576V4.28369C0.360324 4.15462 0.357527 4.01367 0.354492 3.86475C0.351469 3.71637 0.34804 3.56062 0.349609 3.40576C0.352737 3.09792 0.3731 2.78279 0.444336 2.521V2.52002C0.680472 1.67966 1.29582 0.984771 2.11914 0.61084L2.28711 0.539551C2.36962 0.506932 2.51608 0.474254 2.63574 0.445801C2.699 0.430759 2.75743 0.416046 2.80469 0.402832C2.82833 0.39622 2.84772 0.390457 2.8623 0.385254C2.87226 0.381701 2.87771 0.379406 2.87988 0.378418L2.91113 0.358887H15.1143ZM3.83301 1.02393C3.77451 1.02443 3.71573 1.02466 3.65723 1.02588L3.6582 1.02686C3.11184 1.04033 2.64432 1.14073 2.25488 1.3501C1.8671 1.55858 1.54877 1.87938 1.30469 2.34619C1.03813 2.85604 1.06319 3.32087 1.0625 3.91846V5.23877L1.06348 7.75537C1.06328 8.21055 1.06193 8.66586 1.06445 9.12061C1.06842 9.83099 1.30282 10.4146 1.86133 10.9067H1.8623C2.25129 11.2515 2.7542 11.4638 3.29004 11.5073L3.61719 11.5044C3.77711 11.5011 3.97273 11.4977 4.16113 11.5015C4.34787 11.5052 4.53489 11.5164 4.67578 11.5435C4.74473 11.5567 4.81426 11.5751 4.86816 11.606C4.92096 11.6362 4.99311 11.7006 4.98047 11.8052C4.9537 12.0234 4.87707 12.275 4.79492 12.5161C4.71047 12.764 4.62199 12.9959 4.55859 13.1987C4.49176 13.4099 4.41346 13.6708 4.32715 13.8813C4.3294 13.8837 4.33175 13.8859 4.33398 13.8882C4.41017 13.824 4.50098 13.7544 4.59082 13.6909C4.72562 13.5957 4.87294 13.4971 4.96387 13.4341L5.9668 12.7319C6.33396 12.4752 6.718 12.1677 7.10449 11.9204C7.14014 11.8976 7.18807 11.8633 7.24609 11.8218C7.30293 11.7811 7.36772 11.7344 7.43262 11.6909C7.49706 11.6478 7.56479 11.6059 7.62793 11.5737C7.6868 11.5437 7.75899 11.5132 7.82715 11.5112C8.10886 11.5032 8.64362 11.5101 8.91406 11.5103L11.123 11.5112L13.5703 11.5103C14.1394 11.5104 14.5857 11.5377 15.0059 11.4653C15.4155 11.3947 15.7976 11.2282 16.2178 10.8345L16.3359 10.7173C16.599 10.4372 16.7846 10.1009 16.876 9.73779V9.73584C16.9732 9.36316 16.9676 8.90173 16.9678 8.49561V4.29736C16.9675 3.47765 17.0092 2.76166 16.5537 2.08643C16.4632 1.95226 16.3524 1.81465 16.2363 1.70654C15.8865 1.37839 15.438 1.1562 14.9492 1.0708C14.5944 1.01 13.9086 1.02389 13.5117 1.02393H3.83301Z" fill="#FEFEFE" stroke="white" stroke-width="0.25"/>
<ellipse cx="5.22393" cy="6.29033" rx="0.474905" ry="0.483871" fill="white"/>
<ellipse cx="9.02276" cy="6.29033" rx="0.474905" ry="0.483871" fill="white"/>
<ellipse cx="12.8226" cy="6.29033" rx="0.474905" ry="0.483871" fill="white"/>
</g>
<defs>
<clipPath id="clip0_1_25">
<rect width="18" height="15" fill="white"/>
</clipPath>
</defs>
</svg>
