<svg width="37" height="33" viewBox="0 0 37 33" fill="none" xmlns="http://www.w3.org/2000/svg">
<g clip-path="url(#clip0_1_677)">
<path d="M33.6724 2.57227H31.8036V6.1708C31.8036 7.44299 30.7696 8.47779 29.4989 8.47779C28.2282 8.47779 27.1942 7.44299 27.1942 6.1708V2.57227H20.8032V6.1708C20.8032 7.44299 19.7699 8.47779 18.4996 8.47779C17.2293 8.47779 16.1949 7.44299 16.1949 6.1708V2.57227H9.80397V6.1708C9.80397 7.44299 8.77071 8.47779 7.50039 8.47779C6.23008 8.47779 5.19569 7.44299 5.19569 6.1708V2.57227H3.32793C1.49324 2.57227 0 4.06734 0 5.90549V29.6679C0 31.5049 1.49324 33.0003 3.32831 33.0003H33.6724C35.5068 33.0003 37 31.5049 37 29.6679V5.90549C37 4.06772 35.5068 2.57227 33.6724 2.57227ZM34.679 29.6675C34.679 30.2238 34.2275 30.6755 33.6724 30.6755H3.32831C2.7721 30.6755 2.32067 30.2234 2.32067 29.6675V11.699H34.679V29.6675Z" fill="white"/>
<path d="M7.50082 7.44451C8.2023 7.44451 8.77299 6.87297 8.77299 6.17045V1.27405C8.77299 0.571538 8.2023 0 7.50082 0C6.79934 0 6.22791 0.571538 6.22791 1.27405V6.17045C6.22791 6.87297 6.7986 7.44451 7.50082 7.44451Z" fill="white"/>
<path d="M18.5 7.44451C19.2014 7.44451 19.7721 6.87297 19.7721 6.17045V1.27405C19.7721 0.571538 19.2014 0 18.5 0C17.7985 0 17.2271 0.571538 17.2271 1.27405V6.17045C17.2271 6.87297 17.7977 7.44451 18.5 7.44451Z" fill="white"/>
<path d="M29.4992 7.44451C30.2015 7.44451 30.7721 6.87297 30.7721 6.17045V1.27405C30.7721 0.571538 30.2015 0 29.4992 0C28.797 0 28.2263 0.571538 28.2263 1.27405V6.17045C28.2263 6.87297 28.7978 7.44451 29.4992 7.44451Z" fill="white"/>
<path d="M20.2964 14.4897H16.7035C16.3641 14.4897 16.089 14.7653 16.089 15.1052V16.6222C16.089 16.9621 16.3641 17.2377 16.7035 17.2377H20.2964C20.6358 17.2377 20.9109 16.9621 20.9109 16.6222V15.1052C20.9109 14.7653 20.6358 14.4897 20.2964 14.4897Z" fill="white"/>
<path d="M26.9359 14.4897H30.5288C30.868 14.4897 31.1433 14.7655 31.1433 15.1052V16.6222C31.1433 16.9619 30.868 17.2377 30.5288 17.2377H26.9359C26.5967 17.2377 26.3214 16.9619 26.3214 16.6222V15.1052C26.3214 14.7655 26.5967 14.4897 26.9359 14.4897Z" fill="white"/>
<path d="M6.47086 19.8133H10.0637C10.4029 19.8133 10.6782 20.089 10.6782 20.4287V21.9461C10.6782 22.2859 10.4029 22.5616 10.0637 22.5616H6.47086C6.13164 22.5616 5.85632 22.2859 5.85632 21.9461V20.4287C5.85632 20.089 6.13164 19.8133 6.47086 19.8133Z" fill="white"/>
<path d="M16.7035 19.8133H20.2964C20.6356 19.8133 20.9109 20.089 20.9109 20.4287V21.9461C20.9109 22.2859 20.6356 22.5616 20.2964 22.5616H16.7035C16.3643 22.5616 16.089 22.2859 16.089 21.9461V20.4287C16.089 20.089 16.3643 19.8133 16.7035 19.8133Z" fill="white"/>
<path d="M30.5288 19.8133H26.9359C26.5965 19.8133 26.3214 20.0888 26.3214 20.4287V21.9461C26.3214 22.286 26.5965 22.5616 26.9359 22.5616H30.5288C30.8682 22.5616 31.1433 22.286 31.1433 21.9461V20.4287C31.1433 20.0888 30.8682 19.8133 30.5288 19.8133Z" fill="white"/>
<path d="M6.47086 25.1373H10.0637C10.4029 25.1373 10.6782 25.413 10.6782 25.7527V27.2701C10.6782 27.6098 10.4029 27.8856 10.0637 27.8856H6.47086C6.13164 27.8856 5.85632 27.6098 5.85632 27.2701V25.7527C5.85632 25.413 6.13164 25.1373 6.47086 25.1373Z" fill="white"/>
<path d="M20.2964 25.1373H16.7035C16.3641 25.1373 16.089 25.4128 16.089 25.7527V27.2697C16.089 27.6096 16.3641 27.8852 16.7035 27.8852H20.2964C20.6358 27.8852 20.9109 27.6096 20.9109 27.2697V25.7527C20.9109 25.4128 20.6358 25.1373 20.2964 25.1373Z" fill="white"/>
<path d="M26.9359 25.1373H30.5288C30.868 25.1373 31.1433 25.413 31.1433 25.7527V27.2697C31.1433 27.6095 30.868 27.8852 30.5288 27.8852H26.9359C26.5967 27.8852 26.3214 27.6095 26.3214 27.2697V25.7527C26.3214 25.413 26.5967 25.1373 26.9359 25.1373Z" fill="white"/>
</g>
<defs>
<clipPath id="clip0_1_677">
<rect width="37" height="33" fill="white"/>
</clipPath>
</defs>
</svg>
