<svg width="17" height="16" viewBox="0 0 17 16" fill="none" xmlns="http://www.w3.org/2000/svg">
<g clip-path="url(#clip0_1_4)">
<path d="M15.4711 1.24719H14.6124V2.99194C14.6124 3.60876 14.1374 4.11048 13.5535 4.11048C12.9697 4.11048 12.4946 3.60876 12.4946 2.99194V1.24719H9.55823V2.99194C9.55823 3.60876 9.08349 4.11048 8.49983 4.11048C7.91617 4.11048 7.44091 3.60876 7.44091 2.99194V1.24719H4.50453V2.99194C4.50453 3.60876 4.02978 4.11048 3.44613 4.11048C2.86247 4.11048 2.38721 3.60876 2.38721 2.99194V1.24719H1.52905C0.686084 1.24719 0 1.97208 0 2.8633V14.3844C0 15.2751 0.686084 16.0002 1.52922 16.0002H15.4711C16.3139 16.0002 17 15.2751 17 14.3844V2.8633C17 1.97226 16.3139 1.24719 15.4711 1.24719ZM15.9336 14.3843C15.9336 14.654 15.7262 14.873 15.4711 14.873H1.52922C1.27367 14.873 1.06626 14.6538 1.06626 14.3843V5.67228H15.9336V14.3843Z" fill="white"/>
<path d="M3.44618 3.60946C3.76848 3.60946 4.03069 3.33235 4.03069 2.99173V0.617723C4.03069 0.277109 3.76848 0 3.44618 0C3.12388 0 2.86133 0.277109 2.86133 0.617723V2.99173C2.86133 3.33235 3.12354 3.60946 3.44618 3.60946Z" fill="white"/>
<path d="M8.49989 3.60946C8.82219 3.60946 9.0844 3.33235 9.0844 2.99173V0.617723C9.0844 0.277109 8.82219 0 8.49989 0C8.17759 0 7.91504 0.277109 7.91504 0.617723V2.99173C7.91504 3.33235 8.17725 3.60946 8.49989 3.60946Z" fill="white"/>
<path d="M13.5536 3.60946C13.8762 3.60946 14.1385 3.33235 14.1385 2.99173V0.617723C14.1385 0.277109 13.8762 0 13.5536 0C13.231 0 12.9688 0.277109 12.9688 0.617723V2.99173C12.9688 3.33235 13.2313 3.60946 13.5536 3.60946Z" fill="white"/>
<path d="M9.3257 7.02533H7.67493C7.51899 7.02533 7.39258 7.15893 7.39258 7.32373V8.05926C7.39258 8.22406 7.51899 8.35766 7.67493 8.35766H9.3257C9.48164 8.35766 9.60805 8.22406 9.60805 8.05926V7.32373C9.60805 7.15893 9.48164 7.02533 9.3257 7.02533Z" fill="white"/>
<path d="M12.3761 7.02533H14.0269C14.1827 7.02533 14.3092 7.15901 14.3092 7.32373V8.05926C14.3092 8.22397 14.1827 8.35766 14.0269 8.35766H12.3761C12.2202 8.35766 12.0938 8.22397 12.0938 8.05926V7.32373C12.0938 7.15901 12.2202 7.02533 12.3761 7.02533Z" fill="white"/>
<path d="M2.97278 9.60645H4.62355C4.77941 9.60645 4.90591 9.74013 4.90591 9.90484V10.6406C4.90591 10.8053 4.77941 10.939 4.62355 10.939H2.97278C2.81693 10.939 2.69043 10.8053 2.69043 10.6406V9.90484C2.69043 9.74013 2.81693 9.60645 2.97278 9.60645Z" fill="white"/>
<path d="M7.67493 9.60645H9.3257C9.48156 9.60645 9.60805 9.74013 9.60805 9.90484V10.6406C9.60805 10.8053 9.48156 10.939 9.3257 10.939H7.67493C7.51907 10.939 7.39258 10.8053 7.39258 10.6406V9.90484C7.39258 9.74013 7.51907 9.60645 7.67493 9.60645Z" fill="white"/>
<path d="M14.0269 9.60645H12.3761C12.2202 9.60645 12.0938 9.74004 12.0938 9.90484V10.6406C12.0938 10.8054 12.2202 10.939 12.3761 10.939H14.0269C14.1828 10.939 14.3092 10.8054 14.3092 10.6406V9.90484C14.3092 9.74004 14.1828 9.60645 14.0269 9.60645Z" fill="white"/>
<path d="M2.97278 12.1877H4.62355C4.77941 12.1877 4.90591 12.3214 4.90591 12.4861V13.2219C4.90591 13.3866 4.77941 13.5203 4.62355 13.5203H2.97278C2.81693 13.5203 2.69043 13.3866 2.69043 13.2219V12.4861C2.69043 12.3214 2.81693 12.1877 2.97278 12.1877Z" fill="white"/>
<path d="M9.3257 12.1877H7.67493C7.51899 12.1877 7.39258 12.3213 7.39258 12.4861V13.2217C7.39258 13.3865 7.51899 13.5201 7.67493 13.5201H9.3257C9.48164 13.5201 9.60805 13.3865 9.60805 13.2217V12.4861C9.60805 12.3213 9.48164 12.1877 9.3257 12.1877Z" fill="white"/>
<path d="M12.3761 12.1877H14.0269C14.1827 12.1877 14.3092 12.3214 14.3092 12.4861V13.2217C14.3092 13.3864 14.1827 13.5201 14.0269 13.5201H12.3761C12.2202 13.5201 12.0938 13.3864 12.0938 13.2217V12.4861C12.0938 12.3214 12.2202 12.1877 12.3761 12.1877Z" fill="white"/>
</g>
<defs>
<clipPath id="clip0_1_4">
<rect width="17" height="16" fill="white"/>
</clipPath>
</defs>
</svg>
