<svg width="250" height="64" viewBox="0 0 250 64" fill="none" xmlns="http://www.w3.org/2000/svg">
<rect width="249.931" height="63.459" fill="#B5FFFF"/>
<path d="M72.4595 31.5443C72.4595 37.5095 72.5864 40.0478 73.1893 41.0314C73.4431 41.4122 73.7922 41.5708 74.1729 41.5708C74.5854 41.5708 74.9344 41.4122 75.1565 41.0314C75.7911 40.0478 75.918 37.5095 75.918 31.5443C75.918 25.6109 75.7911 23.0725 75.1565 22.0889C74.9344 21.7082 74.5854 21.5495 74.1729 21.5495C73.7922 21.5495 73.4431 21.7082 73.1893 22.0889C72.5864 23.0725 72.4595 25.6109 72.4595 31.5443ZM68.2712 31.5443C68.2712 24.4369 68.8424 21.0736 70.4923 19.2333C71.3173 18.2814 72.5547 17.7737 74.1729 17.7737C75.8228 17.7737 77.0286 18.2814 77.8853 19.2333C78.7737 20.2169 79.3448 21.6765 79.6938 23.8975H82.5178V17.9006H86.7061V46.5206H82.5178V38.5248H79.789C79.44 41.1584 78.8371 42.8083 77.8853 43.8871C77.0286 44.839 75.8228 45.3149 74.1729 45.3149C72.5547 45.3149 71.3173 44.839 70.4923 43.8871C68.8424 42.0468 68.2712 38.6835 68.2712 31.5443ZM80.0111 27.6099C80.0746 28.7839 80.1063 30.0848 80.1063 31.5443C80.1063 32.7183 80.0746 33.7971 80.0429 34.7807H82.5178V27.6099H80.0111ZM88.4195 46.8697V17.742H92.6395V46.8697H88.4195ZM97.4294 25.7378C97.4294 22.8187 98.3178 20.5977 100.031 19.2016C101.269 18.1545 103.014 17.5833 105.14 17.5833C107.297 17.5833 109.011 18.1545 110.28 19.2016C111.961 20.5977 112.85 22.8187 112.85 25.7378C112.85 28.6569 111.961 30.9097 110.28 32.3058C109.011 33.3529 107.297 33.924 105.14 33.924C103.014 33.924 101.269 33.3529 100.031 32.3058C98.3178 30.9097 97.4294 28.6569 97.4294 25.7378ZM101.681 25.7378C101.681 27.4195 102.094 28.6252 102.887 29.3867C103.458 29.9261 104.188 30.2117 105.14 30.2117C106.092 30.2117 106.853 29.9261 107.424 29.3867C108.217 28.6252 108.63 27.4195 108.63 25.7378C108.63 24.0879 108.217 22.8504 107.424 22.1207C106.853 21.5813 106.092 21.2957 105.14 21.2957C104.188 21.2957 103.458 21.5813 102.887 22.1207C102.094 22.8504 101.681 24.0879 101.681 25.7378ZM124.875 21.0101V24.7859H121.004V27.5464H124.875V31.3539H121.004V34.6538H116.657V17.742H121.004V21.0101H124.875ZM121.004 36.0182V47.3456H116.657V39.7623H99.0159V36.0182H121.004ZM137.027 22.6601C137.027 27.8002 139.406 30.0848 143.119 31.1953V35.0346C139.628 34.4 136.551 32.7183 134.901 30.4973C133.314 32.8135 130.236 34.6538 126.619 35.3519V31.5126C130.459 30.3703 132.68 27.5781 132.68 22.6601V17.9006H137.027V22.6601ZM146.926 38.1758V17.742H151.273V38.1758H146.926ZM129.316 46.9966V36.6845H133.663V43.2208H151.781V46.9966H129.316ZM172.404 20.1217V23.8658H167.01C167.422 27.7685 169.58 29.6088 172.943 30.3386V34.1779C169.485 33.6702 166.502 32.1472 164.852 29.8627C163.107 32.1472 160.061 34.0827 156.602 34.5269V30.6876C159.997 29.9578 162.155 27.8954 162.536 23.8658H157.142V20.1217H162.599V16.8853H166.946V20.1217H172.404ZM171.23 28.7521V25.008H176.433V17.742H180.78V34.7173H176.433V28.7521H171.23ZM158.506 41.3487C158.506 39.2229 159.585 37.7633 161.267 36.8114C163.456 35.6057 166.597 35.1615 169.961 35.1615C173.324 35.1615 176.497 35.6057 178.654 36.8114C180.368 37.7633 181.447 39.2229 181.447 41.3487C181.447 43.4429 180.368 44.9024 178.654 45.8543C176.497 47.06 173.324 47.5043 169.961 47.5043C166.597 47.5043 163.456 47.06 161.267 45.8543C159.585 44.9024 158.506 43.4429 158.506 41.3487ZM162.853 41.3487C162.853 41.9516 163.139 42.4275 163.773 42.8083C164.947 43.5063 167.168 43.8236 169.961 43.8236C172.784 43.8236 175.006 43.5063 176.179 42.8083C176.782 42.4275 177.1 41.9516 177.1 41.3487C177.1 40.7141 176.782 40.2382 176.179 39.8892C175.006 39.1594 172.784 38.8421 169.961 38.8421C167.168 38.8421 164.947 39.1594 163.773 39.8892C163.139 40.2382 162.853 40.7141 162.853 41.3487Z" fill="#242424"/>
</svg>
